<svg
  width="512" height="103"
  xmlns="http://www.w3.org/2000/svg"
  fill="none"
  viewBox="0 0 512 103"
>
  <defs>
    <clipPath id="a">
      <path d="M0 0h512v103H0z" />
    </clipPath>
  </defs>
  <g clip-path="url(#a)">
    <path
      fill="#082119"
      d="M136.397 81.057c-4.369 0-8.574-.587-12.616-1.761-4.041-1.174-7.4-2.799-10.076-4.874l4.096-9.093c5.571 3.877 11.824 5.816 18.76 5.816 3.604 0 6.376-.587 8.315-1.761 1.938-1.175 2.908-2.799 2.908-4.875 0-1.856-.888-3.304-2.663-4.341-1.775-1.038-4.929-2.048-9.461-3.031-5.08-1.038-9.135-2.294-12.166-3.769-3.031-1.474-5.242-3.29-6.635-5.447-1.393-2.158-2.089-4.82-2.089-7.988 0-3.495.969-6.608 2.908-9.338 1.939-2.731 4.656-4.875 8.151-6.431 3.495-1.557 7.537-2.335 12.124-2.335 4.096 0 8.042.601 11.838 1.802 3.795 1.202 6.813 2.813 9.052 4.834l-4.096 9.093c-5.298-3.878-10.868-5.817-16.712-5.817-3.331 0-5.953.642-7.864 1.926-1.912 1.283-2.867 3.044-2.867 5.283 0 1.311.368 2.39 1.106 3.236.737.847 1.966 1.598 3.686 2.253s4.164 1.338 7.332 2.048c7.427 1.638 12.766 3.741 16.015 6.308 3.25 2.567 4.874 6.117 4.874 10.649 0 5.462-2.102 9.763-6.307 12.903-4.206 3.14-10.077 4.71-17.613 4.71Zm53.575-9.175c1.257 0 2.567-.082 3.933-.246l-.656 9.012a34.8 34.8 0 0 1-4.751.327c-6.117 0-10.581-1.338-13.394-4.014-2.813-2.676-4.219-6.744-4.219-12.206V49.354h-7.618v-9.257h7.618V28.301h12.37v11.796h10.076v9.257h-10.076v15.319c0 4.806 2.239 7.209 6.717 7.209Zm28.754 9.093c-4.259 0-8-.86-11.223-2.58-3.222-1.72-5.707-4.151-7.454-7.291-1.748-3.14-2.622-6.84-2.622-11.1s.874-7.96 2.622-11.1c1.747-3.141 4.232-5.557 7.454-7.25 3.223-1.693 6.964-2.54 11.223-2.54 4.26 0 8.001.847 11.223 2.54 3.223 1.693 5.708 4.109 7.455 7.25 1.748 3.14 2.622 6.84 2.622 11.1s-.874 7.96-2.622 11.1c-1.747 3.14-4.232 5.571-7.455 7.291-3.222 1.72-6.963 2.58-11.223 2.58Zm0-9.42c6.008 0 9.012-3.851 9.012-11.551 0-3.878-.779-6.772-2.335-8.684-1.557-1.911-3.782-2.867-6.677-2.867-6.007 0-9.011 3.85-9.011 11.551 0 7.7 3.004 11.551 9.011 11.551Zm55.542-22.283-6.963.738c-3.441.327-5.871 1.297-7.291 2.908s-2.13 3.754-2.13 6.43V80.32h-12.37V40.097h11.879v6.8c2.02-4.643 6.198-7.182 12.533-7.619l3.605-.246.737 10.24Zm35.943-9.093h12.124l-24.249 54.887h-12.533l7.7-16.958-16.548-37.929h12.862l10.158 25.559 10.486-25.559Zm40.796-1.065c3.495 0 6.581.847 9.257 2.54 2.676 1.693 4.765 4.109 6.267 7.25 1.501 3.14 2.252 6.785 2.252 10.936s-.751 7.823-2.252 11.018c-1.502 3.195-3.605 5.68-6.308 7.455-2.704 1.775-5.776 2.662-9.216 2.662-2.786 0-5.298-.587-7.537-1.761s-3.959-2.799-5.161-4.874v5.98h-12.206V22.566h12.37v22.938c1.201-2.021 2.908-3.591 5.12-4.71 2.212-1.12 4.683-1.68 7.414-1.68Zm-3.605 32.441c2.895 0 5.134-1.024 6.718-3.072 1.583-2.048 2.375-4.929 2.375-8.643 0-3.659-.792-6.458-2.375-8.397-1.584-1.939-3.823-2.908-6.718-2.908-2.894 0-5.133.997-6.717 2.99-1.584 1.994-2.376 4.82-2.376 8.479 0 3.714.792 6.567 2.376 8.56 1.584 1.994 3.823 2.991 6.717 2.991Zm48.251 9.42c-4.26 0-8.001-.86-11.223-2.58-3.222-1.72-5.707-4.151-7.455-7.291-1.747-3.14-2.621-6.84-2.621-11.1s.874-7.96 2.621-11.1c1.748-3.141 4.233-5.557 7.455-7.25 3.222-1.693 6.963-2.54 11.223-2.54 4.26 0 8.001.847 11.223 2.54 3.222 1.693 5.707 4.109 7.455 7.25 1.748 3.14 2.621 6.84 2.621 11.1s-.873 7.96-2.621 11.1c-1.748 3.14-4.233 5.571-7.455 7.291-3.222 1.72-6.963 2.58-11.223 2.58Zm0-9.42c6.008 0 9.011-3.851 9.011-11.551 0-3.878-.778-6.772-2.334-8.684-1.557-1.911-3.782-2.867-6.677-2.867-6.007 0-9.011 3.85-9.011 11.551 0 7.7 3.004 11.551 9.011 11.551Zm46.121 9.42c-4.26 0-8.001-.86-11.223-2.58-3.222-1.72-5.707-4.151-7.455-7.291-1.747-3.14-2.621-6.84-2.621-11.1s.874-7.96 2.621-11.1c1.748-3.141 4.233-5.557 7.455-7.25 3.222-1.693 6.963-2.54 11.223-2.54 4.26 0 8.001.847 11.223 2.54 3.222 1.693 5.707 4.109 7.455 7.25 1.747 3.14 2.621 6.84 2.621 11.1s-.874 7.96-2.621 11.1c-1.748 3.14-4.233 5.571-7.455 7.291-3.222 1.72-6.963 2.58-11.223 2.58Zm0-9.42c6.008 0 9.011-3.851 9.011-11.551 0-3.878-.778-6.772-2.334-8.684-1.557-1.911-3.782-2.867-6.677-2.867-6.007 0-9.011 3.85-9.011 11.551 0 7.7 3.004 11.551 9.011 11.551ZM512 80.32h-15.155l-15.401-17.94v17.94h-12.37V22.566h12.37V57.3l14.827-17.121h14.746l-16.876 19.169L512 80.32Z"
    />
    <path
      fill="#4cbb88"
      d="M3.176 94.358.004 9.835a5.147 5.147 0 0 1 4.823-5.331L76.72.01a5.15 5.15 0 0 1 5.47 5.139v92.103a5.148 5.148 0 0 1-5.38 5.143L8.09 99.308a5.148 5.148 0 0 1-4.914-4.95Z"
    />
    <path
      fill="#ebfaf0"
      d="M60.691 12.587 61.182.776 71.055 0l.425 12.18a.766.766 0 0 1-1.242.63L66.43 9.811l-4.508 3.419a.767.767 0 0 1-1.231-.643ZM48.064 38.596c0 2.003 13.492 1.043 15.304-.364 0-13.64-7.319-20.808-20.722-20.808-13.402 0-20.911 7.279-20.911 18.198 0 19.017 25.664 19.381 25.664 29.754 0 2.912-1.426 4.64-4.563 4.64-4.087 0-5.703-2.087-5.513-9.184 0-1.54-15.588-2.02-16.063 0-1.211 17.199 9.505 22.16 21.767 22.16 11.881 0 21.196-6.333 21.196-17.798 0-20.382-26.044-19.836-26.044-29.936 0-4.094 3.042-4.64 4.848-4.64 1.901 0 5.322.335 5.037 7.978Z"
    />
  </g>
</svg>

